<?xml version="1.0" standalone="no"?><svg xmlns="http://www.w3.org/2000/svg" viewBox="0 0 1440 320"><path fill="#e7008a" fill-opacity="1" d="M0,256L20,234.7C40,213,80,171,120,170.7C160,171,200,213,240,234.7C280,256,320,256,360,245.3C400,235,440,213,480,176C520,139,560,85,600,96C640,107,680,181,720,176C760,171,800,85,840,64C880,43,920,85,960,101.3C1000,117,1040,107,1080,101.3C1120,96,1160,96,1200,90.7C1240,85,1280,75,1320,101.3C1360,128,1400,192,1420,224L1440,256L1440,0L1420,0C1400,0,1360,0,1320,0C1280,0,1240,0,1200,0C1160,0,1120,0,1080,0C1040,0,1000,0,960,0C920,0,880,0,840,0C800,0,760,0,720,0C680,0,640,0,600,0C560,0,520,0,480,0C440,0,400,0,360,0C320,0,280,0,240,0C200,0,160,0,120,0C80,0,40,0,20,0L0,0Z"></path></svg>