<?xml version="1.0" standalone="no"?><svg xmlns="http://www.w3.org/2000/svg" viewBox="0 0 1440 320"><path fill="#5000ca" fill-opacity="1" d="M0,128L24,112C48,96,96,64,144,74.7C192,85,240,139,288,133.3C336,128,384,64,432,69.3C480,75,528,149,576,165.3C624,181,672,139,720,144C768,149,816,203,864,208C912,213,960,171,1008,128C1056,85,1104,43,1152,32C1200,21,1248,43,1296,42.7C1344,43,1392,21,1416,10.7L1440,0L1440,320L1416,320C1392,320,1344,320,1296,320C1248,320,1200,320,1152,320C1104,320,1056,320,1008,320C960,320,912,320,864,320C816,320,768,320,720,320C672,320,624,320,576,320C528,320,480,320,432,320C384,320,336,320,288,320C240,320,192,320,144,320C96,320,48,320,24,320L0,320Z"></path></svg>